<!-- Generated by IcoMoon.io -->
<svg version="1.1" xmlns="http://www.w3.org/2000/svg" width="32" height="32" viewBox="0 0 32 32">
<title>hackerrank</title>
<path fill="#2ec866" d="M16 0c1.713 0 13 6.515 13.856 8 0.86 1.487 0.86 14.513 0 16s-12.14 8-13.856 8-13-6.513-13.86-8c-0.855-1.487-0.855-14.513 0-16 0.86-1.485 12.147-8 13.86-8zM19.060 9.065c-0.188 0-0.344 0.153-0.344 0.344v5.167h-5.432v-5.365h0.935c0.188 0 0.339-0.153 0.339-0.344 0-0.125-0.065-0.235-0.164-0.295l-2.096-2.012c-0.065-0.084-0.188-0.145-0.301-0.145-0.112 0-0.213 0.060-0.276 0.143l-2.24 2.016c-0.096 0.060-0.16 0.168-0.16 0.291 0 0.191 0.151 0.344 0.34 0.344h0.939l0.011 13.38c0 0.193 0.148 0.344 0.339 0.344h1.989c0.189 0 0.345-0.153 0.345-0.341v-5.339h5.431v5.536h-0.932c-0.191 0-0.341 0.153-0.341 0.344 0 0.123 0.064 0.232 0.159 0.292l2.105 2.013c0.059 0.081 0.188 0.145 0.3 0.145 0.113 0 0.212-0.060 0.277-0.145l2.239-2.013c0.096-0.060 0.16-0.169 0.16-0.292 0-0.191-0.153-0.344-0.34-0.344h-0.939l-0.009-13.379c0-0.193-0.152-0.347-0.34-0.347h-1.992z"></path>
</svg>
