<!-- Generated by IcoMoon.io -->
<svg version="1.1" xmlns="http://www.w3.org/2000/svg" width="32" height="32" viewBox="0 0 32 32">
<title>leetcode</title>
<path fill="#f89f1b" d="M21.469 23.907l-3.596 3.476c-0.621 0.623-1.481 0.883-2.431 0.883s-1.809-0.26-2.432-0.883l-5.776-5.817c-0.623-0.623-0.936-1.533-0.936-2.484s0.313-1.809 0.936-2.432l5.759-5.84c0.623-0.623 1.5-0.86 2.449-0.86s1.809 0.26 2.431 0.883l3.596 3.475c0.685 0.687 1.82 0.663 2.533-0.051 0.713-0.715 0.737-1.849 0.052-2.535l-3.479-3.515c-0.872-0.862-1.978-1.488-3.215-1.774l-0.045-0.009 3.289-3.337c0.688-0.685 0.664-1.821-0.049-2.535s-1.849-0.736-2.536-0.051l-13.467 13.468c-1.308 1.309-1.992 3.116-1.992 5.113s0.684 3.86 1.992 5.167l5.796 5.815c1.308 1.305 3.116 1.936 5.112 1.936s3.804-0.683 5.113-1.992l3.479-3.516c0.685-0.685 0.661-1.82-0.052-2.533s-1.848-0.737-2.532-0.052zM27.748 17.347h-13.527c-0.936 0-1.693 0.805-1.693 1.795s0.757 1.795 1.693 1.795h13.527c0.935 0 1.693-0.805 1.693-1.795s-0.759-1.795-1.693-1.795z"></path>
</svg>
