<svg aria-hidden="true" style="position: absolute; width: 0; height: 0; overflow: hidden;" version="1.1" xmlns="http://www.w3.org/2000/svg" xmlns:xlink="http://www.w3.org/1999/xlink">
<defs>
<symbol id="icon-call" viewBox="0 0 24 24">
<path d="M20.016 15.375q0.422 0 0.703 0.281t0.281 0.703v3.469q0 1.172-0.984 1.172-6.984 0-12-5.016t-5.016-12q0-0.984 1.172-0.984h3.469q0.422 0 0.703 0.281t0.281 0.703q0 1.828 0.563 3.516 0.188 0.609-0.234 1.031l-1.922 1.688q2.156 4.5 6.891 6.797l1.547-1.969q0.281-0.281 0.703-0.281 0.234 0 0.328 0.047 1.688 0.563 3.516 0.563z"></path>
</symbol>
<symbol id="icon-email" viewBox="0 0 24 24">
<path d="M20.016 8.016v-2.016l-8.016 5.016-8.016-5.016v2.016l8.016 4.969zM20.016 3.984q0.797 0 1.383 0.609t0.586 1.406v12q0 0.797-0.586 1.406t-1.383 0.609h-16.031q-0.797 0-1.383-0.609t-0.586-1.406v-12q0-0.797 0.586-1.406t1.383-0.609h16.031z"></path>
</symbol>
<symbol id="icon-location_on" viewBox="0 0 24 24">
<path d="M12 11.484q1.031 0 1.758-0.727t0.727-1.758-0.727-1.758-1.758-0.727-1.758 0.727-0.727 1.758 0.727 1.758 1.758 0.727zM12 2.016q2.906 0 4.945 2.039t2.039 4.945q0 1.453-0.727 3.328t-1.758 3.516-2.039 3.070-1.711 2.273l-0.75 0.797q-0.281-0.328-0.75-0.867t-1.688-2.156-2.133-3.141-1.664-3.445-0.75-3.375q0-2.906 2.039-4.945t4.945-2.039z"></path>
</symbol>
</defs>
<defs>
<symbol id="icon-codechef" viewBox="0 0 32 32">
<path fill="#f8aa0b" style="fill: var(--color1, #f8aa0b)" d="M14.676 0c-1.049 0.041-2.020 0.493-2.963 0.913-0.691 0.338-1.516 0.657-2.37 0.908l-0.116 0.029c-0.847 0.235-1.733 0.472-2.419 1.051-0.296 0.24-0.475 0.585-0.705 0.883-0.412 0.648-0.597 1.423-0.609 2.184 0.048 0.813 0.288 1.6 0.501 2.381 0.491 1.683 1.076 3.337 1.596 5.012 0.488 1.548 0.937 3.125 1.725 4.555 0.263 0.525 0.467 1.077 0.713 1.608 0.036 0.089 0.069 0.211 0.189 0.199 0.181-0.016 0.324-0.153 0.491-0.219 1.104-0.552 2.32-0.856 3.54-0.999 0.944-0.099 1.907-0.104 2.841 0.072 0.96 0.217 1.889 0.568 2.789 0.965 0.48 0.229 0.959 0.464 1.451 0.664 0.064 0.053 0.18 0.077 0.213-0.021 0.292-0.436 0.625-0.847 0.889-1.301 0.66-1.415 0.696-3.039 1.384-4.441 0.477-0.961 1.189-1.783 1.688-2.731 0.233-0.355 0.575-0.623 0.784-0.996 0.583-0.892 1.040-1.864 1.4-2.867 0.136-0.391 0.229-0.816 0.12-1.225-0.080-0.399-0.269-0.76-0.424-1.131-0.088-0.334-0.215-0.627-0.379-0.894l0.008 0.014c-0.543-0.901-1.427-1.532-2.324-2.048-1.393-0.787-2.928-1.292-4.468-1.707-1.446-0.402-3.147-0.702-4.893-0.839l-0.096-0.006c-0.131-0.009-0.284-0.014-0.438-0.014-0.042 0-0.084 0-0.127 0.001l0.006-0zM13.491 0.808c-0.348 0.297-0.484 0.759-0.624 1.177-0.224 0.757-0.351 1.551-0.276 2.341 0.085 1.416 0.263 2.827 0.44 4.233 0.24 1.803 0.516 3.6 0.903 5.379 0.035 0.22 0.085 0.463 0.067 0.68-0.153-0.233-0.243-0.511-0.344-0.773-0.333-1.020-0.576-2.065-0.805-3.112-0.383-1.684-0.651-3.659-0.746-5.678l-0.003-0.078c-0.033-1.124-0.005-2.301 0.493-3.335 0.157-0.301 0.345-0.613 0.64-0.796 0.075-0.042 0.165-0.066 0.261-0.066 0.010 0 0.021 0 0.031 0.001l-0.001-0zM8.688 2.36c0.171 0 0.185 0.212 0.224 0.336 0.355 1.064 0.563 2.171 0.905 3.237 0.232 0.865 0.317 1.764 0.411 2.655 0.129 1.385 0.144 2.78 0.328 4.16 0.035 0.265 0.109 0.524 0.159 0.787 0.013 0.089-0.079 0.065-0.111 0.019-0.197-0.215-0.244-0.521-0.328-0.789-0.213-0.86-0.323-1.74-0.445-2.616-0.232-1.755-0.383-3.52-0.705-5.26-0.211-0.816-0.475-1.62-0.613-2.451 0.008-0.068 0.124-0.064 0.176-0.077zM6.119 4.809c0.305 0.075 0.487 0.357 0.683 0.579 0.533 0.713 0.72 1.605 0.927 2.457 0.377 1.687 0.595 3.404 0.967 5.093 0.175 0.888 0.391 1.768 0.676 2.628 0.019 0.068 0.047 0.177 0.051 0.227-0.311-0.573-0.524-1.195-0.753-1.804-0.797-2.264-1.097-4.661-1.733-6.971-0.177-0.637-0.411-1.267-0.795-1.811-0.063-0.117-0.107-0.272-0.049-0.396 0.008-0.005 0.019-0.004 0.028-0.003zM22.98 22.404c-0.181 0.009-0.413 0.147-0.368 0.356 0.125 0.291 0.445 0.411 0.701 0.555 0.588 0.288 1.251 0.387 1.811 0.728 0.123 0.080 0.199 0.263 0.085 0.383-0.24 0.355-0.627 0.587-0.964 0.845-0.496 0.355-1.036 0.68-1.409 1.172-0.088 0.143-0.055 0.356 0.109 0.427 0.145 0.105 0.324 0.024 0.451-0.068 0.691-0.392 1.327-0.872 1.971-1.336 0.427-0.319 0.859-0.636 1.235-1.013 0.113-0.18-0.040-0.365-0.157-0.495-0.364-0.38-0.827-0.649-1.287-0.893-0.562-0.302-1.215-0.531-1.904-0.654l-0.040-0.006c-0.035-0.003-0.076-0.004-0.117-0.004s-0.082 0.001-0.122 0.004l0.005-0zM7.947 22.44c-0.703 0.179-1.329 0.56-1.965 0.897-0.567 0.324-1.139 0.661-1.607 1.121-0.143 0.163-0.23 0.378-0.23 0.613 0 0.013 0 0.026 0.001 0.039l-0-0.002c0.087 0.144 0.267 0.187 0.401 0.275 1.136 0.589 2.313 1.096 3.507 1.557 0.176 0.056 0.353 0.151 0.541 0.143 0.211-0.027 0.412-0.272 0.284-0.475-0.195-0.324-0.56-0.481-0.867-0.675-0.729-0.404-1.539-0.683-2.181-1.224-0.061-0.121 0.125-0.171 0.189-0.24 0.732-0.527 1.639-0.791 2.284-1.436 0.119-0.12 0.219-0.345 0.064-0.477-0.115-0.097-0.275-0.116-0.421-0.117zM18.767 23.497c-0.573 0.036-1.113 0.575-1.032 1.168 0.043 0.345 0.119 0.7 0.304 0.999 0.16 0.24 0.44 0.381 0.728 0.383 0.364 0.041 0.787-0.079 0.968-0.424 0.183-0.316 0.283-0.685 0.273-1.049-0.051-0.613-0.621-1.127-1.241-1.076zM12.78 23.511c-0.619 0.037-1.076 0.673-1.027 1.271 0.015 0.592 0.42 1.203 1.020 1.325 0.469 0.080 0.947-0.253 1.071-0.707 0.167-0.467 0.176-1.015-0.059-1.46-0.209-0.333-0.637-0.436-1.005-0.429zM12.929 24.381c0.321 0.085 0.392 0.627 0.060 0.744-0.188 0.045-0.319-0.16-0.312-0.325-0.011-0.169 0.067-0.383 0.252-0.419zM18.845 24.572c0.129 0 0.301 0.095 0.253 0.249-0.017 0.228-0.287 0.444-0.503 0.301-0.176-0.093-0.229-0.395-0.027-0.491 0.073-0.038 0.16-0.061 0.253-0.061 0.008 0 0.016 0 0.025 0.001l-0.001-0zM14.155 28.541c-0.737 0.068-1.392 0.447-2.056 0.745-0.405 0.208-0.883 0.416-1.34 0.249-0.503-0.16-0.943-0.467-1.412-0.693-0.1-0.017-0.081 0.103-0.063 0.163 0.108 0.707 0.172 1.469 0.605 2.067 0.451 0.583 1.203 0.824 1.911 0.889 1.063 0.096 2.189-0.157 3.028-0.839 0.412-0.349 0.761-0.841 0.78-1.399-0.008-0.432-0.325-0.795-0.699-0.979-0.212-0.128-0.467-0.204-0.741-0.204-0.005 0-0.010 0-0.015 0h0.001zM17.595 28.552c-0.528 0.069-1.087 0.349-1.296 0.867-0.172 0.477 0.045 0.997 0.363 1.36 0.568 0.679 1.427 1.057 2.291 1.179 0.769 0.104 1.581 0.019 2.285-0.32 0.584-0.3 1.023-0.873 1.133-1.523 0.085-0.388 0.108-0.787 0.165-1.179-0.088-0.104-0.197 0.051-0.291 0.069-0.449 0.189-0.863 0.489-1.347 0.58-0.484 0.032-0.916-0.229-1.353-0.391-0.573-0.237-1.135-0.537-1.753-0.637-0.043-0.004-0.092-0.006-0.142-0.006-0.019 0-0.039 0-0.058 0.001l0.003-0zM13.753 21.764c-0.093 0-0.191 0.019-0.288 0.040-0.235 0.058-0.437 0.128-0.63 0.212l0.025-0.010c-0.2 0.081-0.389 0.169-0.543 0.24-0.061 0.030-0.157 0.071-0.254 0.11l-0.037 0.013c-0.017 0.003-0.037 0.005-0.057 0.005-0.068 0-0.132-0.018-0.187-0.051l0.002 0.001c-0.083-0.049-0.16-0.135-0.188-0.34l-0.36 0.051c0.041 0.291 0.187 0.493 0.36 0.6 0.173 0.105 0.357 0.12 0.504 0.089 0.113-0.024 0.213-0.077 0.368-0.148s0.34-0.157 0.529-0.235c0.191-0.077 0.384-0.147 0.547-0.184 0.057-0.017 0.124-0.027 0.192-0.027 0.051 0 0.101 0.006 0.149 0.016l-0.005-0.001c0.187 0.080 0.253 0.173 0.287 0.239 0.033 0.067 0.040 0.089 0.040 0.089l0.351-0.080c0 0 0.003-0.032-0.067-0.171-0.103-0.186-0.265-0.33-0.461-0.407l-0.006-0.002c-0.073-0.031-0.158-0.050-0.248-0.050-0.008 0-0.016 0-0.024 0l0.001-0zM17.412 27.013c-0.055 0.001-0.103 0.027-0.136 0.066l-0 0c0 0-0.163 0.197-0.381 0.393-0.22 0.197-0.507 0.373-0.657 0.377-0.149 0.004-0.419-0.157-0.627-0.347-0.207-0.187-0.356-0.379-0.356-0.379-0.033-0.048-0.088-0.079-0.15-0.079-0.1 0-0.181 0.081-0.181 0.181 0 0.046 0.017 0.089 0.046 0.121l-0-0c0 0 0.165 0.213 0.399 0.425 0.233 0.213 0.529 0.449 0.88 0.44 0.345-0.011 0.645-0.253 0.888-0.469 0.243-0.217 0.42-0.433 0.42-0.433 0.026-0.031 0.042-0.072 0.042-0.116 0-0.1-0.081-0.181-0.181-0.181-0.002 0-0.003 0-0.005 0h0zM14.676 0.001c-1.049 0.040-2.020 0.491-2.963 0.912-0.691 0.338-1.516 0.657-2.37 0.908l-0.116 0.029c-0.847 0.235-1.733 0.472-2.419 1.051-0.296 0.24-0.475 0.587-0.705 0.884-0.412 0.647-0.597 1.421-0.609 2.183 0.048 0.813 0.288 1.6 0.501 2.381 0.491 1.684 1.076 3.337 1.596 5.012 0.488 1.548 0.937 3.125 1.725 4.556 0.263 0.524 0.467 1.076 0.713 1.607 0.036 0.089 0.069 0.211 0.189 0.2 0.181-0.017 0.324-0.155 0.491-0.22 1.104-0.552 2.32-0.855 3.54-0.999 0.944-0.099 1.907-0.104 2.841 0.073 0.96 0.217 1.889 0.567 2.789 0.964 0.48 0.229 0.959 0.464 1.451 0.664 0.064 0.053 0.18 0.077 0.213-0.021 0.292-0.436 0.625-0.847 0.889-1.3 0.66-1.416 0.696-3.040 1.384-4.443 0.477-0.961 1.189-1.781 1.688-2.729 0.233-0.355 0.575-0.624 0.784-0.996 0.583-0.893 1.040-1.867 1.4-2.868 0.136-0.391 0.229-0.816 0.12-1.225-0.080-0.397-0.269-0.76-0.424-1.131-0.088-0.333-0.215-0.626-0.379-0.893l0.008 0.014c-0.543-0.901-1.427-1.533-2.324-2.048-1.393-0.788-2.928-1.293-4.468-1.708-1.446-0.402-3.147-0.702-4.893-0.839l-0.096-0.006c-0.126-0.009-0.274-0.013-0.423-0.013-0.048 0-0.096 0.001-0.143 0.002l0.007-0zM13.491 0.809c-0.348 0.296-0.484 0.757-0.624 1.177-0.224 0.756-0.351 1.551-0.276 2.34 0.085 1.416 0.263 2.827 0.44 4.233 0.24 1.803 0.516 3.601 0.903 5.379 0.035 0.22 0.085 0.463 0.067 0.68-0.153-0.233-0.243-0.511-0.344-0.773-0.333-1.020-0.576-2.065-0.805-3.112-0.383-1.684-0.651-3.658-0.746-5.677l-0.003-0.078c-0.033-1.125-0.005-2.303 0.493-3.336 0.157-0.3 0.345-0.613 0.64-0.796 0.075-0.042 0.165-0.066 0.261-0.066 0.010 0 0.021 0 0.031 0.001l-0.001-0zM8.688 2.36c0.171 0 0.185 0.213 0.224 0.336 0.355 1.064 0.563 2.171 0.905 3.239 0.232 0.864 0.317 1.763 0.411 2.653 0.129 1.387 0.144 2.781 0.328 4.16 0.035 0.265 0.109 0.525 0.159 0.787 0.013 0.091-0.079 0.067-0.111 0.019-0.197-0.213-0.244-0.52-0.328-0.789-0.213-0.86-0.323-1.739-0.445-2.616-0.232-1.753-0.383-3.52-0.705-5.26-0.211-0.816-0.475-1.62-0.613-2.451 0.008-0.068 0.124-0.064 0.176-0.077zM6.119 4.811c0.305 0.073 0.487 0.356 0.683 0.577 0.533 0.713 0.72 1.605 0.927 2.457 0.377 1.687 0.595 3.405 0.967 5.093 0.175 0.888 0.391 1.769 0.676 2.628 0.019 0.068 0.047 0.177 0.051 0.227-0.311-0.573-0.524-1.195-0.753-1.803-0.797-2.267-1.097-4.663-1.733-6.973-0.177-0.636-0.411-1.267-0.795-1.809-0.063-0.116-0.107-0.272-0.049-0.395 0.008-0.005 0.019-0.004 0.028-0.003zM22.98 22.404c-0.181 0.009-0.413 0.147-0.368 0.357 0.125 0.289 0.445 0.409 0.701 0.555 0.588 0.287 1.251 0.385 1.811 0.727 0.123 0.080 0.199 0.263 0.085 0.383-0.24 0.356-0.627 0.587-0.964 0.845-0.496 0.355-1.036 0.68-1.409 1.172-0.088 0.143-0.055 0.356 0.109 0.427 0.145 0.105 0.324 0.025 0.451-0.067 0.691-0.393 1.327-0.873 1.971-1.336 0.427-0.32 0.859-0.637 1.235-1.015 0.113-0.18-0.040-0.365-0.157-0.493-0.364-0.381-0.827-0.651-1.287-0.896-0.562-0.301-1.215-0.529-1.904-0.651l-0.040-0.006c-0.038-0.003-0.082-0.005-0.126-0.005-0.038 0-0.075 0.001-0.112 0.004l0.005-0zM7.945 22.443c-0.703 0.177-1.329 0.56-1.965 0.896-0.567 0.324-1.139 0.663-1.607 1.123-0.143 0.163-0.23 0.378-0.23 0.613 0 0.013 0 0.025 0.001 0.038l-0-0.002c0.087 0.145 0.267 0.187 0.401 0.275 1.136 0.589 2.313 1.097 3.507 1.557 0.176 0.056 0.353 0.151 0.541 0.144 0.211-0.027 0.412-0.273 0.284-0.476-0.195-0.324-0.56-0.481-0.867-0.675-0.729-0.404-1.539-0.683-2.181-1.224-0.061-0.12 0.125-0.171 0.189-0.24 0.732-0.525 1.639-0.789 2.284-1.436 0.119-0.12 0.219-0.344 0.064-0.476-0.115-0.099-0.275-0.117-0.421-0.117zM18.765 23.499c-0.573 0.037-1.113 0.576-1.032 1.168 0.043 0.347 0.119 0.701 0.304 1 0.16 0.239 0.44 0.38 0.728 0.383 0.364 0.040 0.787-0.080 0.968-0.425 0.183-0.315 0.283-0.685 0.273-1.049-0.051-0.613-0.621-1.125-1.241-1.076zM12.779 23.512c-0.619 0.037-1.076 0.673-1.027 1.271 0.015 0.592 0.42 1.203 1.020 1.327 0.469 0.079 0.947-0.253 1.071-0.707 0.167-0.467 0.176-1.016-0.059-1.461-0.209-0.332-0.637-0.436-1.005-0.429zM12.928 24.384c0.321 0.084 0.392 0.627 0.060 0.743-0.188 0.045-0.319-0.16-0.312-0.325-0.011-0.169 0.067-0.383 0.252-0.417zM18.844 24.573c0.129 0 0.301 0.096 0.253 0.249-0.017 0.229-0.287 0.444-0.503 0.303-0.176-0.095-0.229-0.396-0.027-0.492 0.073-0.038 0.16-0.061 0.253-0.061 0.008 0 0.016 0 0.025 0.001l-0.001-0zM14.153 28.543c-0.737 0.069-1.392 0.448-2.056 0.747-0.405 0.207-0.883 0.415-1.34 0.248-0.503-0.159-0.943-0.467-1.412-0.693-0.1-0.016-0.081 0.104-0.063 0.163 0.108 0.707 0.172 1.469 0.605 2.067 0.451 0.584 1.203 0.825 1.911 0.889 1.063 0.096 2.189-0.157 3.028-0.839 0.412-0.349 0.761-0.84 0.78-1.399-0.008-0.432-0.325-0.795-0.699-0.979-0.212-0.128-0.467-0.204-0.741-0.204-0.005 0-0.010 0-0.015 0h0.001zM17.593 28.553c-0.528 0.069-1.087 0.349-1.296 0.867-0.172 0.479 0.045 0.997 0.363 1.361 0.568 0.677 1.427 1.056 2.291 1.177 0.769 0.104 1.581 0.020 2.285-0.32 0.584-0.3 1.023-0.873 1.133-1.523 0.085-0.387 0.108-0.787 0.165-1.179-0.088-0.103-0.197 0.052-0.291 0.069-0.449 0.191-0.863 0.489-1.347 0.581-0.484 0.032-0.916-0.229-1.353-0.392-0.573-0.237-1.135-0.536-1.753-0.636-0.046-0.005-0.099-0.007-0.153-0.007-0.016 0-0.031 0-0.047 0.001l0.002-0z"></path>
</symbol>
<symbol id="icon-github" viewBox="0 0 32 32">
<path fill="#f8aa0b" style="fill: var(--color2, #f8aa0b)" d="M16 0.396c-8.84 0-16 7.164-16 16 0 7.071 4.584 13.067 10.94 15.18 0.8 0.151 1.093-0.344 1.093-0.769 0-0.38-0.013-1.387-0.020-2.72-4.451 0.965-5.389-2.147-5.389-2.147-0.728-1.847-1.78-2.34-1.78-2.34-1.449-0.992 0.112-0.972 0.112-0.972 1.607 0.112 2.451 1.648 2.451 1.648 1.427 2.447 3.745 1.74 4.66 1.331 0.144-1.035 0.556-1.74 1.013-2.14-3.553-0.4-7.288-1.776-7.288-7.907 0-1.747 0.62-3.173 1.647-4.293-0.18-0.404-0.72-2.031 0.14-4.235 0 0 1.34-0.429 4.4 1.64 1.28-0.356 2.64-0.532 4-0.54 1.36 0.008 2.72 0.184 4 0.54 3.040-2.069 4.38-1.64 4.38-1.64 0.86 2.204 0.32 3.831 0.16 4.235 1.020 1.12 1.64 2.547 1.64 4.293 0 6.147-3.74 7.5-7.3 7.893 0.56 0.48 1.080 1.461 1.080 2.96 0 2.141-0.020 3.861-0.020 4.381 0 0.42 0.28 0.92 1.1 0.76 6.401-2.099 10.981-8.099 10.981-15.159 0-8.836-7.164-16-16-16z"></path>
</symbol>
<symbol id="icon-hackerrank" viewBox="0 0 32 32">
<path fill="#f8aa0b" style="fill: var(--color2, #f8aa0b)" d="M16 0c1.713 0 13 6.515 13.856 8 0.86 1.487 0.86 14.513 0 16s-12.14 8-13.856 8-13-6.513-13.86-8c-0.855-1.487-0.855-14.513 0-16 0.86-1.485 12.147-8 13.86-8zM19.060 9.065c-0.188 0-0.344 0.153-0.344 0.344v5.167h-5.432v-5.365h0.935c0.188 0 0.339-0.153 0.339-0.344 0-0.125-0.065-0.235-0.164-0.295l-2.096-2.012c-0.065-0.084-0.188-0.145-0.301-0.145-0.112 0-0.213 0.060-0.276 0.143l-2.24 2.016c-0.096 0.060-0.16 0.168-0.16 0.291 0 0.191 0.151 0.344 0.34 0.344h0.939l0.011 13.38c0 0.193 0.148 0.344 0.339 0.344h1.989c0.189 0 0.345-0.153 0.345-0.341v-5.339h5.431v5.536h-0.932c-0.191 0-0.341 0.153-0.341 0.344 0 0.123 0.064 0.232 0.159 0.292l2.105 2.013c0.059 0.081 0.188 0.145 0.3 0.145 0.113 0 0.212-0.060 0.277-0.145l2.239-2.013c0.096-0.060 0.16-0.169 0.16-0.292 0-0.191-0.153-0.344-0.34-0.344h-0.939l-0.009-13.379c0-0.193-0.152-0.347-0.34-0.347h-1.992z"></path>
</symbol>
</defs>
<defs>
<symbol id="icon-facebook" viewBox="0 0 32 32">
<path fill="#f89f1b" style="fill: var(--color1, #f89f1b)" d="M31.997 15.999c0-8.836-7.163-15.999-15.999-15.999s-15.999 7.163-15.999 15.999c0 7.985 5.851 14.604 13.499 15.804v-11.18h-4.062v-4.625h4.062v-3.525c0-4.010 2.389-6.225 6.043-6.225 1.75 0 3.581 0.313 3.581 0.313v3.937h-2.017c-1.987 0-2.607 1.233-2.607 2.498v3.001h4.437l-0.709 4.625h-3.728v11.18c7.649-1.2 13.499-7.819 13.499-15.804z"></path>
</symbol>
<symbol id="icon-instagram" viewBox="0 0 32 32">
<path fill="#f89f1b" style="fill: var(--color2, #f89f1b)" d="M16 0c-4.347 0-4.889 0.020-6.596 0.096-1.704 0.080-2.864 0.348-3.884 0.744-1.052 0.408-1.945 0.956-2.835 1.845s-1.439 1.781-1.845 2.835c-0.396 1.020-0.665 2.18-0.744 3.884-0.080 1.707-0.096 2.249-0.096 6.596s0.020 4.889 0.096 6.596c0.080 1.703 0.348 2.864 0.744 3.884 0.408 1.051 0.956 1.945 1.845 2.835 0.889 0.888 1.781 1.439 2.835 1.845 1.021 0.395 2.181 0.665 3.884 0.744 1.707 0.080 2.249 0.096 6.596 0.096s4.889-0.020 6.596-0.096c1.703-0.080 2.864-0.349 3.884-0.744 1.051-0.408 1.945-0.957 2.835-1.845 0.888-0.889 1.439-1.78 1.845-2.835 0.395-1.020 0.665-2.181 0.744-3.884 0.080-1.707 0.096-2.249 0.096-6.596s-0.020-4.889-0.096-6.596c-0.080-1.703-0.349-2.865-0.744-3.884-0.408-1.052-0.957-1.945-1.845-2.835-0.889-0.889-1.78-1.439-2.835-1.845-1.020-0.396-2.181-0.665-3.884-0.744-1.707-0.080-2.249-0.096-6.596-0.096zM16 2.88c4.271 0 4.78 0.021 6.467 0.095 1.56 0.073 2.407 0.332 2.969 0.553 0.749 0.289 1.28 0.636 1.843 1.195 0.559 0.56 0.905 1.092 1.195 1.841 0.219 0.563 0.48 1.409 0.551 2.969 0.076 1.688 0.093 2.195 0.093 6.467s-0.020 4.78-0.099 6.467c-0.081 1.56-0.341 2.407-0.561 2.969-0.299 0.749-0.639 1.28-1.199 1.843-0.559 0.559-1.099 0.905-1.84 1.195-0.56 0.219-1.42 0.48-2.98 0.551-1.699 0.076-2.199 0.093-6.479 0.093-4.281 0-4.781-0.020-6.479-0.099-1.561-0.081-2.421-0.341-2.981-0.561-0.759-0.299-1.28-0.639-1.839-1.199-0.561-0.559-0.92-1.099-1.2-1.84-0.22-0.56-0.479-1.42-0.56-2.98-0.060-1.68-0.081-2.199-0.081-6.459 0-4.261 0.021-4.781 0.081-6.481 0.081-1.56 0.34-2.419 0.56-2.979 0.28-0.76 0.639-1.28 1.2-1.841 0.559-0.559 1.080-0.919 1.839-1.197 0.56-0.221 1.401-0.481 2.961-0.561 1.7-0.060 2.2-0.080 6.479-0.080zM16 7.784c-4.54 0-8.216 3.68-8.216 8.216 0 4.54 3.68 8.216 8.216 8.216 4.54 0 8.216-3.68 8.216-8.216 0-4.54-3.68-8.216-8.216-8.216zM16 21.333c-2.947 0-5.333-2.387-5.333-5.333s2.387-5.333 5.333-5.333 5.333 2.387 5.333 5.333-2.387 5.333-5.333 5.333zM26.461 7.46c0 1.060-0.861 1.92-1.92 1.92-1.060 0-1.92-0.861-1.92-1.92s0.861-1.919 1.92-1.919c1.057-0.001 1.92 0.86 1.92 1.919z"></path>
</symbol>
<symbol id="icon-leetcode" viewBox="0 0 32 32">
<path fill="#f89f1b" style="fill: var(--color3, #f89f1b)" d="M21.469 23.907l-3.596 3.476c-0.621 0.623-1.481 0.883-2.431 0.883s-1.809-0.26-2.432-0.883l-5.776-5.817c-0.623-0.623-0.936-1.533-0.936-2.484s0.313-1.809 0.936-2.432l5.759-5.84c0.623-0.623 1.5-0.86 2.449-0.86s1.809 0.26 2.431 0.883l3.596 3.475c0.685 0.687 1.82 0.663 2.533-0.051 0.713-0.715 0.737-1.849 0.052-2.535l-3.479-3.515c-0.872-0.862-1.978-1.488-3.215-1.774l-0.045-0.009 3.289-3.337c0.688-0.685 0.664-1.821-0.049-2.535s-1.849-0.736-2.536-0.051l-13.467 13.468c-1.308 1.309-1.992 3.116-1.992 5.113s0.684 3.86 1.992 5.167l5.796 5.815c1.308 1.305 3.116 1.936 5.112 1.936s3.804-0.683 5.113-1.992l3.479-3.516c0.685-0.685 0.661-1.82-0.052-2.533s-1.848-0.737-2.532-0.052zM27.748 17.347h-13.527c-0.936 0-1.693 0.805-1.693 1.795s0.757 1.795 1.693 1.795h13.527c0.935 0 1.693-0.805 1.693-1.795s-0.759-1.795-1.693-1.795z"></path>
</symbol>
<symbol id="icon-linkedin" viewBox="0 0 32 32">
<path fill="#f89f1b" style="fill: var(--color4, #f89f1b)" d="M27.263 27.269h-4.739v-7.425c0-1.771-0.036-4.049-2.469-4.049-2.471 0-2.848 1.927-2.848 3.919v7.556h-4.739v-15.269h4.552v2.081h0.061c0.636-1.2 2.183-2.467 4.493-2.467 4.801 0 5.689 3.16 5.689 7.273zM7.116 9.911c-1.525 0-2.751-1.235-2.751-2.753 0-1.517 1.227-2.751 2.751-2.751 1.52 0 2.752 1.233 2.752 2.751 0 1.519-1.233 2.753-2.752 2.753zM9.492 27.269h-4.752v-15.269h4.752zM29.633 0h-27.272c-1.305 0-2.361 1.032-2.361 2.305v27.389c0 1.275 1.056 2.305 2.361 2.305h27.268c1.304 0 2.371-1.031 2.371-2.305v-27.389c0-1.273-1.067-2.305-2.371-2.305z"></path>
</symbol>
<symbol id="icon-twitter" viewBox="0 0 32 32">
<path fill="#f89f1b" style="fill: var(--color5, #f89f1b)" d="M31.939 6.092c-1.18 0.519-2.44 0.872-3.767 1.033 1.352-0.815 2.392-2.099 2.884-3.631-1.268 0.74-2.673 1.279-4.169 1.579-1.195-1.279-2.897-2.079-4.788-2.079-3.623 0-6.56 2.937-6.56 6.556 0 0.52 0.060 1.020 0.169 1.499-5.453-0.257-10.287-2.876-13.521-6.835-0.569 0.963-0.888 2.081-0.888 3.3 0 2.28 1.16 4.284 2.917 5.461-1.076-0.035-2.088-0.331-2.971-0.821v0.081c0 3.18 2.257 5.832 5.261 6.436-0.551 0.148-1.132 0.228-1.728 0.228-0.419 0-0.82-0.040-1.221-0.115 0.841 2.604 3.26 4.503 6.139 4.556-2.24 1.759-5.079 2.807-8.136 2.807-0.52 0-1.039-0.031-1.56-0.089 2.919 1.859 6.357 2.945 10.076 2.945 12.072 0 18.665-9.995 18.665-18.648 0-0.279 0-0.56-0.020-0.84 1.281-0.919 2.4-2.080 3.28-3.397z"></path>
</symbol>
</defs>
</svg>
